<?xml version="1.0" standalone="no"?><!DOCTYPE svg PUBLIC "-//W3C//DTD SVG 1.1//EN" "http://www.w3.org/Graphics/SVG/1.1/DTD/svg11.dtd"><svg t="1625905951950" class="icon" viewBox="0 0 1024 1024" version="1.1" xmlns="http://www.w3.org/2000/svg" p-id="9613" xmlns:xlink="http://www.w3.org/1999/xlink" width="200" height="200"><defs><style type="text/css"></style></defs><path d="M511.84 64l22.912 15.616c0.544 0.416 58.688 39.84 148.992 74.304a577.472 577.472 0 0 0 174.048 35.2l37.984 0.608L896 552.864C896 735.232 646.336 928 512 928c-134.24 0-384-192.832-384-375.136V189.664l38.08-0.544a577.12 577.12 0 0 0 174.08-35.2l8.64-3.36c85.28-33.6 139.776-70.528 140.256-70.912L511.84 64z m219.52 286.56c-16.352-16.32-43.744-15.456-61.184 1.984l-222.08 222.08-92.256-92.32c-16.32-16.32-43.712-15.456-61.152 1.984-17.44 17.44-18.336 44.832-2.016 61.152l118.272 118.304c3.2 3.168 6.752 5.664 10.56 7.552 16.48 10.976 39.712 8.512 55.168-6.944l252.64-252.64c17.44-17.44 18.336-44.832 2.016-61.152z" p-id="9614"></path></svg>
