<?xml version="1.0" standalone="no"?><!DOCTYPE svg PUBLIC "-//W3C//DTD SVG 1.1//EN" "http://www.w3.org/Graphics/SVG/1.1/DTD/svg11.dtd"><svg t="1624279022443" class="icon" viewBox="0 0 1024 1024" version="1.1" xmlns="http://www.w3.org/2000/svg" p-id="4777" xmlns:xlink="http://www.w3.org/1999/xlink" width="200" height="200"><defs><style type="text/css"></style></defs><path d="M773.12 368.64H250.88a30.72 30.72 0 0 1-22.9376-10.24l-102.4-115.2a30.72 30.72 0 0 1 0-40.96l102.4-115.2A30.72 30.72 0 0 1 250.88 76.8h522.24a30.72 30.72 0 0 1 30.72 30.72v230.4a30.72 30.72 0 0 1-30.72 30.72zM264.6528 307.2H742.4V138.24H264.6528L189.44 222.72zM773.12 760.32H250.88a30.72 30.72 0 0 1-30.72-30.72v-230.4a30.72 30.72 0 0 1 30.72-30.72h522.24a30.72 30.72 0 0 1 22.9376 10.24l102.4 115.2a30.72 30.72 0 0 1 0 40.96l-102.4 115.2a30.72 30.72 0 0 1-22.9376 10.24z m-491.52-61.44h477.7472L834.56 614.4l-75.0592-84.48H281.6z" p-id="4778"></path><path d="M512 527.36a30.72 30.72 0 0 1-30.72-30.72V343.04a30.72 30.72 0 0 1 61.44 0v153.6a30.72 30.72 0 0 1-30.72 30.72zM512 947.2a30.72 30.72 0 0 1-30.72-30.72v-184.32a30.72 30.72 0 0 1 61.44 0v184.32a30.72 30.72 0 0 1-30.72 30.72z" p-id="4779"></path></svg>