<?xml version="1.0" standalone="no"?><!DOCTYPE svg PUBLIC "-//W3C//DTD SVG 1.1//EN" "http://www.w3.org/Graphics/SVG/1.1/DTD/svg11.dtd"><svg t="1624246337953" class="icon" viewBox="0 0 1024 1024" version="1.1" xmlns="http://www.w3.org/2000/svg" p-id="554" xmlns:xlink="http://www.w3.org/1999/xlink" width="200" height="200"><defs><style type="text/css"></style></defs><path d="M588.8 476.16h240.64c23.04 0 40.96-17.92 40.96-40.96s-17.92-38.4-40.96-38.4H686.08l143.36-143.36c15.36-15.36 15.36-40.96 0-56.32s-40.96-15.36-56.32 0L629.76 340.48V197.12c0-23.04-17.92-40.96-40.96-40.96s-38.4 17.92-38.4 40.96V435.2c-2.56 23.04 15.36 40.96 38.4 40.96zM199.68 622.08l143.36 7.68L192 765.44c-15.36 15.36-17.92 40.96-2.56 56.32 15.36 15.36 40.96 17.92 56.32 2.56L396.8 688.64 389.12 832c0 23.04 15.36 40.96 38.4 40.96 23.04 2.56 40.96-15.36 43.52-38.4l12.8-240.64c0-23.04-15.36-40.96-38.4-43.52l-238.08-12.8c-23.04 0-40.96 15.36-40.96 38.4-7.68 25.6 10.24 43.52 33.28 46.08z" fill="#333333" p-id="555"></path><path d="M875.52 92.16c30.72 0 56.32 25.6 56.32 56.32v729.6c0 30.72-25.6 56.32-56.32 56.32H148.48c-30.72 0-56.32-25.6-56.32-56.32v-729.6c0-30.72 25.6-56.32 56.32-56.32h727.04m0-81.92H148.48c-17.92 0-35.84 2.56-53.76 10.24C79.36 28.16 64 38.4 51.2 51.2S28.16 79.36 23.04 94.72c-7.68 17.92-12.8 35.84-12.8 53.76v729.6c0 17.92 2.56 35.84 10.24 53.76C28.16 944.64 38.4 960 51.2 972.8s28.16 23.04 43.52 28.16c17.92 7.68 35.84 10.24 53.76 10.24h729.6c17.92 0 35.84-2.56 53.76-10.24 15.36-7.68 30.72-17.92 43.52-28.16s23.04-28.16 28.16-43.52c7.68-17.92 10.24-35.84 10.24-53.76V148.48c0-17.92-2.56-35.84-10.24-53.76C995.84 79.36 985.6 64 972.8 51.2s-28.16-23.04-43.52-28.16c-17.92-7.68-35.84-12.8-53.76-12.8z" fill="#333333" p-id="556"></path></svg>