<?xml version="1.0" standalone="no"?><!DOCTYPE svg PUBLIC "-//W3C//DTD SVG 1.1//EN" "http://www.w3.org/Graphics/SVG/1.1/DTD/svg11.dtd"><svg t="1624245143493" class="icon" viewBox="0 0 1024 1024" version="1.1" xmlns="http://www.w3.org/2000/svg" p-id="10024" xmlns:xlink="http://www.w3.org/1999/xlink" width="200" height="200"><defs><style type="text/css"></style></defs><path d="M813.497485 171.688623H585.378491a38.317222 38.317222 0 0 0-38.286563 37.538491c-0.42309 21.589844 17.44479 39.034635 39.034635 39.034635h136.547641l-137.289581 137.28958c-14.893988 14.887856-14.893988 39.243114 0 54.13097 14.881725 14.887856 39.236982 14.887856 54.124838 0l136.234922-136.22879v137.185341c0 20.847904 16.800958 37.863473 37.538491 38.286563 21.479473 0.429222 39.028503-17.438659 39.028503-39.028503V210.502515A38.826156 38.826156 0 0 0 813.497485 171.688623z m-375.728287 604.05576h-136.553773l137.406084-137.295712c14.887856-14.887856 14.887856-39.243114 0-54.13097-14.887856-14.887856-39.243114-14.887856-54.13097 0L248.255617 720.540359v-137.289581c0-20.847904-16.800958-37.863473-37.538491-38.286562C189.237653 544.541126 171.688623 562.402874 171.688623 583.99885v229.284024A38.985581 38.985581 0 0 0 210.717126 852.311377h227.904383c20.847904 0 37.857341-16.696719 38.286563-37.538491 0.31885-21.589844-17.54903-39.028503-39.138874-39.028503z" fill="#000000" p-id="10025"></path><path d="M857.799281 113.161198a53.057916 53.057916 0 0 1 53.039521 53.039521v691.598562a53.057916 53.057916 0 0 1-53.039521 53.039521H166.200719a53.057916 53.057916 0 0 1-53.039521-53.039521V166.200719a53.057916 53.057916 0 0 1 53.039521-53.039521h691.598562z m0-76.370779H166.200719c-17.395737 0-34.368383 3.396982-50.384479 10.178683a128.502802 128.502802 0 0 0-41.156216 27.690922 127.356168 127.356168 0 0 0-27.68479 41.156216A128.441485 128.441485 0 0 0 36.790419 166.200719v691.598562c0 17.395737 3.396982 34.368383 10.178683 50.384479a128.502802 128.502802 0 0 0 27.690922 41.156216 127.356168 127.356168 0 0 0 41.156216 27.68479A128.441485 128.441485 0 0 0 166.200719 987.209581h691.598562c17.395737 0 34.368383-3.396982 50.384479-10.178683a128.502802 128.502802 0 0 0 41.156216-27.690922 127.356168 127.356168 0 0 0 27.68479-41.156216 128.441485 128.441485 0 0 0 10.184815-50.384479V166.200719c0-17.395737-3.396982-34.368383-10.178683-50.384479a128.502802 128.502802 0 0 0-27.690922-41.156216 127.356168 127.356168 0 0 0-41.156216-27.68479A128.441485 128.441485 0 0 0 857.799281 36.790419z" fill="#000000" p-id="10026"></path></svg>